<?xml version="1.0"?>
<svg width="150" height="70" xmlns="http://www.w3.org/2000/svg" xmlns:svg="http://www.w3.org/2000/svg">
 <g class="layer">
  <title>Layer 1</title>
  <path d="m80.89,16.05c-2.38,0 -4.32,-1.94 -4.32,-4.32c0,-2.38 1.94,-4.31 4.32,-4.31c2.38,0 4.31,1.93 4.31,4.31c0,2.38 -1.93,4.32 -4.31,4.32zm22.4,0.54l-11.94,-11.73c-2.9,-2.84 -6.67,-4.37 -10.46,-4.41c-3.8,0.04 -7.57,1.57 -10.47,4.41l-11.93,11.73c-5.87,5.76 -5.87,15.09 0,20.85l1.5,1.48c2.69,2.64 16.66,8.66 17.92,9.17l0,-22.78c0,-0.7 -0.49,-1.33 -1.15,-1.59l-7.44,-2.91c-0.63,0.52 -1.43,0.84 -2.3,0.84c-1.97,0 -3.57,-1.6 -3.57,-3.58c0,-1.97 1.6,-3.57 3.57,-3.57c1.83,0 3.33,1.37 3.54,3.14l7.25,2.83c0.99,0.38 2.03,0.58 3.08,0.6c1.04,-0.02 2.08,-0.21 3.07,-0.6l7.25,-2.83c0.22,-1.77 1.72,-3.14 3.54,-3.14c1.97,0 3.57,1.6 3.57,3.57c0,1.98 -1.6,3.58 -3.57,3.58c-0.87,0 -1.68,-0.32 -2.29,-0.84l-7.45,2.91c-0.67,0.26 -1.15,0.88 -1.15,1.59l0,22.78c1.25,-0.51 15.23,-6.53 17.91,-9.17l1.51,-1.48c5.87,-5.76 5.87,-15.09 0.01,-20.85l0,0z" fill="#7BC24D" id="svg_1"/>
 </g>
</svg>