<?xml version="1.0" encoding="utf-8"?>
<svg xmlns="http://www.w3.org/2000/svg" viewBox="0 0 500 500">
  <g id="new_itc_logo" transform="matrix(1, 0, 0, 1, -981.349617, -80.574677)">
    <g id="Group_649" transform="translate(952)">
      <path id="Path_39620" class="st0" d="M354.7,196.1l-46.5-45.6c-21.9-22.5-57.9-22.9-80.4-1c-0.3,0.3-0.7,0.7-1,1l-46.4,45.6 c-22.4,21.8-22.9,57.5-1.1,80c0.4,0.4,0.7,0.7,1.1,1.1l5.9,5.8c10.5,10.3,64.8,33.7,69.7,35.6v-88.5c-0.1-2.8-1.9-5.2-4.5-6.2 l-29-11.4c-6.4,5.3-16.1,4-20.6-3.2c-3.6-5.7-2.5-13.4,2.6-17.8c5.9-5.1,14.8-4.5,19.7,1.5c1.7,2.1,2.8,4.6,3.1,7.2l28.2,11 c7.7,3.1,16.2,3.1,23.9,0l28.2-11c0.9-7.6,7.9-13,15.5-12c7.6,0.9,13,7.9,12,15.5c-0.9,7.6-7.9,13-15.5,12 c-2.7-0.3-5.2-1.4-7.2-3.1l-29,11.4c-2.6,1-4.4,3.4-4.5,6.2v88.4c4.9-2,59.2-25.4,69.7-35.6l5.9-5.8c22.4-21.8,22.8-57.6,1-80.1 C355.4,196.8,355,196.5,354.7,196.1L354.7,196.1z M267.7,193.9c-9.3,0-16.8-7.5-16.8-16.8s7.5-16.8,16.8-16.8s16.8,7.5,16.8,16.8 c0,4.5-1.8,8.7-4.9,11.9C276.4,192.1,272.1,193.9,267.7,193.9L267.7,193.9z" opacity="1" pathLength="1" stroke-dashoffset="0px" stroke-dasharray="1px 1px" style="fill: rgb(131, 200, 5);"/>
      <path id="Path_39621" class="st1" d="M355.9,197.1L279,303v16c4.9-2,59.5-25.5,70-35.8l5.9-5.8 C377.3,255.5,377.8,219.5,355.9,197.1L355.9,197.1z" opacity="1" pathLength="1" stroke-dashoffset="0px" stroke-dasharray="1px 1px" style="fill: rgb(131, 200, 5);"/>
      <path id="Path_39622" class="st2" d="M227,198.3l6.3-34l20.1,3.7c5-7.9,15.4-10.2,23.3-5.2c3.9,2.5,6.6,6.4,7.5,10.9l59.6,11.1 l-35.3-34.6c-22-22.6-58.2-23-80.7-1c-0.3,0.3-0.7,0.7-1,1L180.2,196c-22.5,21.9-23,57.8-1.1,80.3c0.4,0.4,0.7,0.7,1.1,1.1 l5.9,5.8c3.6,3.5,12.4,8.6,22.6,13.9l15.6-83.9l-1.8-0.7c-5.9,4.9-14.7,4.2-19.6-1.7s-4.2-14.7,1.7-19.6s14.7-4.2,19.6,1.7 C225.5,194.4,226.5,196.3,227,198.3z" opacity="1" pathLength="1" stroke-dashoffset="0px" stroke-dasharray="1px 1px" style="fill: rgb(131, 200, 5);"/>
      <path id="Path_39623" class="st3" d="M298.4,142l-65.3,22l-5.1-15C247.1,130.7,276.2,127.8,298.4,142z" opacity="1" pathLength="1" stroke-dashoffset="0px" stroke-dasharray="1px 1px" style="fill: rgb(131, 200, 5);"/>
    </g>
    <g id="Group_5" transform="translate(3855.512 -70.154)">
      <g id="Group_4" transform="translate(-2485.834 239.48)"/>
    </g>
  </g>
  <g id="Group_5_00000070828790171695622380000000173269121225355165_" transform="matrix(1, 0, 0, 1, 3633.320095, -102.540818)">
    <g id="Group_4_00000040573702066691528980000015006839419097893768_" transform="translate(-2485.834 239.48)"/>
  </g>
</svg>