<?xml version="1.0" encoding="utf-8"?>
<!-- Generator: Adobe Illustrator 26.0.3, SVG Export Plug-In . SVG Version: 6.00 Build 0)  -->
<svg version="1.1" id="Слой_1" xmlns="http://www.w3.org/2000/svg" xmlns:xlink="http://www.w3.org/1999/xlink" x="0px" y="0px"
	 viewBox="0 0 670.1 186" style="enable-background:new 0 0 670.1 186;" xml:space="preserve">
<style type="text/css">
	.st0{fill-rule:evenodd;clip-rule:evenodd;fill:#93CE03;}
	.st1{fill-rule:evenodd;clip-rule:evenodd;fill:#83C805;}
	.st2{fill-rule:evenodd;clip-rule:evenodd;fill:#ABDB06;}
	.st3{fill-rule:evenodd;clip-rule:evenodd;fill:#A1D606;}
	.st4{fill:#FFFFFF;}
</style>
<g id="new_itc_logo" transform="translate(-1115 -133)">
	<g id="Group_649" transform="translate(952)">
		<path id="Path_39620" class="st0" d="M354.7,196.1l-46.5-45.6c-21.9-22.5-57.9-22.9-80.4-1c-0.3,0.3-0.7,0.7-1,1l-46.4,45.6
			c-22.4,21.8-22.9,57.5-1.1,80c0.4,0.4,0.7,0.7,1.1,1.1l5.9,5.8c10.5,10.3,64.8,33.7,69.7,35.6v-88.5c-0.1-2.8-1.9-5.2-4.5-6.2
			l-29-11.4c-6.4,5.3-16.1,4-20.6-3.2c-3.6-5.7-2.5-13.4,2.6-17.8c5.9-5.1,14.8-4.5,19.7,1.5c1.7,2.1,2.8,4.6,3.1,7.2l28.2,11
			c7.7,3.1,16.2,3.1,23.9,0l28.2-11c0.9-7.6,7.9-13,15.5-12c7.6,0.9,13,7.9,12,15.5c-0.9,7.6-7.9,13-15.5,12
			c-2.7-0.3-5.2-1.4-7.2-3.1l-29,11.4c-2.6,1-4.4,3.4-4.5,6.2v88.4c4.9-2,59.2-25.4,69.7-35.6l5.9-5.8c22.4-21.8,22.8-57.6,1-80.1
			C355.4,196.8,355,196.5,354.7,196.1L354.7,196.1z M267.7,193.9c-9.3,0-16.8-7.5-16.8-16.8s7.5-16.8,16.8-16.8s16.8,7.5,16.8,16.8
			c0,4.5-1.8,8.7-4.9,11.9C276.4,192.1,272.1,193.9,267.7,193.9L267.7,193.9z"/>
		<path id="Path_39621" class="st1" d="M355.9,197.1L279,303v16c4.9-2,59.5-25.5,70-35.8l5.9-5.8
			C377.3,255.5,377.8,219.5,355.9,197.1L355.9,197.1z"/>
		<path id="Path_39622" class="st2" d="M227,198.3l6.3-34l20.1,3.7c5-7.9,15.4-10.2,23.3-5.2c3.9,2.5,6.6,6.4,7.5,10.9l59.6,11.1
			l-35.3-34.6c-22-22.6-58.2-23-80.7-1c-0.3,0.3-0.7,0.7-1,1L180.2,196c-22.5,21.9-23,57.8-1.1,80.3c0.4,0.4,0.7,0.7,1.1,1.1
			l5.9,5.8c3.6,3.5,12.4,8.6,22.6,13.9l15.6-83.9l-1.8-0.7c-5.9,4.9-14.7,4.2-19.6-1.7s-4.2-14.7,1.7-19.6s14.7-4.2,19.6,1.7
			C225.5,194.4,226.5,196.3,227,198.3z"/>
		<path id="Path_39623" class="st3" d="M298.4,142l-65.3,22l-5.1-15C247.1,130.7,276.2,127.8,298.4,142z"/>
	</g>
	<g id="Group_5" transform="translate(3855.512 -70.154)">
		<g id="Group_4" transform="translate(-2485.834 239.48)">
			<g id="Group_2" transform="translate(0)">
				<path id="Path_2" class="st4" d="M-15.5,26.1h11v60h-11V26.1z"/>
				<path id="Path_3" class="st4" d="M48.5,35.1h-17v52h-11v-52h-18v-9h46V35.1z"/>
				<path id="Path_4" class="st4" d="M69.1,56.7c0-18.9,12-31.6,29.9-31.6c15.4,0,26.6,9.2,28.2,23h-10.8C115.2,39.7,108.3,34,99,34
					C87.9,34,80.5,43,80.5,56.7S87.9,79.4,99,79.4c9.3,0,16.2-5.7,17.4-14.3h10.8C125.6,79,114.4,88.2,99,88.2
					C81,88.1,69.1,75.5,69.1,56.7z"/>
				<path id="Path_5" class="st4" d="M178.5,78v8.1h-43v-60h42v9h-31v16h28v9h-28v18L178.5,78z"/>
				<path id="Path_6" class="st4" d="M236.5,26.1v60h-10.2l-27.6-43h-0.2l0.2,43h-10.2v-60H199l27.3,44h0.2l-0.2-44H236.5z"/>
				<path id="Path_7" class="st4" d="M290.5,35.1h-18v52h-11v-52h-17v-9h46V35.1z"/>
				<path id="Path_8" class="st4" d="M341.5,78v8.1h-43v-60h42v9h-31v16h28v9h-28v18L341.5,78z"/>
				<path id="Path_9" class="st4" d="M375.1,62.1h-13.5v25h-11v-61h23.7c13.3,0,22.3,6.9,22.3,17.1c0,7.9-4.5,13.9-12,16.8
					l14.2,26.1h-11.5L375.1,62.1z M361.5,54.1h13.3c6.3,0,10.5-3.8,10.5-9.7c0-5.5-4.2-9.3-10.5-9.3h-13.3V54.1z"/>
			</g>
		</g>
	</g>
</g>
<g id="Group_5_00000070828790171695622380000000173269121225355165_" transform="translate(3855.512 -70.154)">
	<g id="Group_4_00000040573702066691528980000015006839419097893768_" transform="translate(-2485.834 239.48)">
		<g id="Group_3_00000057838741029692913500000002972985526677800881_" transform="translate(180.876 88.849)">
			<path id="Path_10_00000023268462808725575260000000646245658608255663_" class="st4" d="M-1128.6-104.7v7h-2v-19h8.7
				c3.7,0,5.6,2,5.6,6.2c0.1,1.5-0.4,2.9-1.4,4.2c-1.1,1.2-2.5,1.8-4.1,1.6C-1121.8-104.7-1128.6-104.7-1128.6-104.7z
				 M-1129.6-115.6v8.9h6.7c0.9,0.1,1.9-0.4,2.5-1.2c0.6-0.9,0.9-2,0.8-3.1c0.1-1.2-0.2-2.4-0.8-3.5c-0.5-0.8-1.5-1.3-2.4-1.3
				L-1129.6-115.6z"/>
			<path id="Path_11_00000125595755136657040690000018386099957182086072_" class="st4" d="M-1114.7-104.9c0-2.7,0.5-4.5,1.4-5.5
				c1-1,2.5-1.5,4.7-1.5s3.8,0.5,4.8,1.5s1.4,2.9,1.4,5.5c0,2.7-0.5,4.6-1.4,5.6c-1,1.1-2.5,1.6-4.7,1.6c-2.2,0-3.8-0.5-4.7-1.6
				C-1114.2-100.3-1114.7-102.2-1114.7-104.9z M-1108.6-110.3c-1.6,0-2.7,0.4-3.3,1.1c-0.6,0.7-0.9,2.2-0.9,4.5
				c0,2.2,0.3,3.6,0.9,4.4c0.6,0.8,1.7,1.2,3.3,1.2s2.7-0.4,3.3-1.2c0.6-0.8,0.9-2.2,0.9-4.4c0-2.2-0.3-3.7-0.9-4.5
				C-1105.8-110-1106.9-110.3-1108.6-110.3L-1108.6-110.3z"/>
			<path id="Path_12_00000147929877649162060610000016070074546061915290_" class="st4" d="M-1081.2-111.7h2.1
				c-1.2,4.8-2.9,9.4-4.8,14h-2.6c-0.8-4-1.9-8.1-3.1-11.9c-1,4-2.2,8-3.6,11.9h-2.6c-1.2-4.8-2.8-9.4-4.6-14h2.2
				c1.6,4,2.8,8.1,3.7,12.3c0.6-1.8,1.3-3.9,2.1-6.4c0.8-2.6,1.3-4.6,1.7-5.9h2.3c1.3,4,2.5,8.2,3.3,12.3
				C-1083.6-103.4-1082.3-107.4-1081.2-111.7z"/>
			<path id="Path_13_00000022530410123273192630000011977800466434886321_" class="st4" d="M-1071.1-112c2,0,3.4,0.5,4.2,1.6
				c0.9,1,1.3,2.9,1.3,5.7h-9.7c0,2.1,0.4,3.5,1,4.3c1,0.8,2.2,1.2,3.5,1.1c1.3,0,2.6-0.3,3.9-0.7l0.4,1.6c-1.4,0.5-2.9,0.7-4.4,0.8
				c-1.8,0.1-3.5-0.4-4.8-1.6c-1-1.1-1.5-2.9-1.5-5.6c0-2.5,0.5-4.4,1.4-5.4C-1074.8-111.4-1073.3-112-1071.1-112z M-1071.1-110.8
				c-1.1-0.1-2.2,0.2-3.1,0.9c-0.7,0.9-1.1,2.1-1,3.2h7.7c0.1-1.2-0.2-2.3-0.9-3.3C-1069.2-110.6-1070.2-110.9-1071.1-110.8z"/>
			<path id="Path_14_00000082339422046904953840000013801568336924460728_" class="st4" d="M-1057-112.1c0.5,0,0.9,0,1.3,0.1v1.8
				c-0.5-0.1-0.9-0.1-1.3-0.1c-0.9,0-1.8,0.1-2.6,0.5c-0.6,0.2-1,0.7-1.1,1.3v10.8h-2v-14h2v1c0.4-0.4,0.9-0.8,1.4-1
				C-1058.5-111.9-1057.7-112.1-1057-112.1L-1057-112.1z"/>
			<path id="Path_15_00000052811959219277355880000017252368898746772883_" class="st4" d="M-1047.3-112c2,0,3.4,0.5,4.2,1.6
				c0.9,1,1.3,2.9,1.3,5.7h-9.7c0,2.1,0.4,3.5,1,4.3c1,0.8,2.2,1.2,3.5,1.1c1.3,0,2.6-0.3,3.9-0.7l0.4,1.6c-1.4,0.5-2.9,0.7-4.4,0.8
				c-1.8,0.1-3.5-0.4-4.8-1.6c-1-1.1-1.5-2.9-1.5-5.6c0-2.5,0.5-4.4,1.4-5.4C-1051-111.4-1049.4-112-1047.3-112z M-1047.3-110.8
				c-1.1-0.1-2.2,0.2-3.1,0.9c-0.7,0.9-1.1,2.1-1,3.2h7.7c0.1-1.2-0.2-2.3-0.9-3.3C-1045.4-110.6-1046.3-110.9-1047.3-110.8z"/>
			<path id="Path_16_00000177481150999057264110000003350779750855729070_" class="st4" d="M-1032.6-112c1.3-0.1,2.6,0.3,3.9,1.1
				v-6.7h2v18.9c-1.3,0.4-2.2,0.6-3.1,0.8c-0.9,0.2-1.9,0.3-2.8,0.3c-2.2,0-3.8-0.5-4.7-1.5c-0.9-1.1-1.4-2.9-1.4-5.6
				c0-2.7,0.5-4.5,1.4-5.6C-1036.4-111.4-1034.8-112-1032.6-112z M-1032.3-99.3c1.3,0,2.5-0.2,3.7-0.6v-8.5c0-0.6-0.5-1.2-1-1.4
				c-0.8-0.4-1.8-0.6-2.7-0.5c-1.6,0-2.7,0.4-3.3,1.1c-0.6,0.8-0.9,2.2-0.9,4.4c0.1,2.3,0.3,3.8,0.9,4.4
				C-1035.1-99.7-1034-99.4-1032.3-99.3L-1032.3-99.3z"/>
			<path id="Path_17_00000120549364314932920150000000233955694467939727_" class="st4" d="M-1009.9-112c2.2,0,3.7,0.5,4.7,1.6
				c1,1,1.4,2.9,1.4,5.6c0,2.7-0.5,4.5-1.4,5.6c-0.9,1-2.5,1.5-4.7,1.5c-1,0-1.9-0.1-2.8-0.3c-0.9-0.2-1.8-0.4-3-0.8v-18.8h2v6.7
				C-1012.6-111.6-1011.3-112-1009.9-112L-1009.9-112z M-1009.9-99.3c1.7,0,2.8-0.4,3.3-1c0.5-0.7,0.8-2.1,0.9-4.4
				c0-2.2-0.3-3.6-0.9-4.4c-0.6-0.8-1.7-1.1-3.3-1.1c-0.9,0-1.8,0.1-2.7,0.5c-0.6,0.2-1,0.8-1,1.4v8.5
				C-1012.5-99.5-1011.2-99.3-1009.9-99.3L-1009.9-99.3z"/>
			<path id="Path_18_00000057837115031622291750000017010165633610872731_" class="st4" d="M-996.5-97.2c-1.3-5-3-9.8-5.1-14.5h2
				c1.7,4,3.2,8.1,4.3,12.3c1.7-4,3.2-8.1,4.4-12.3h1.9c-1.4,4.7-3.2,9.3-5.1,13.8c-0.7,1.6-1.5,3.4-2.5,5.2h-2
				C-997.9-94-997.2-95.5-996.5-97.2z"/>
			<path id="Path_19_00000014598056604131422680000010955154226553898380_" class="st4" d="M-977.6-97.7v-19h2v19H-977.6z"/>
			<path id="Path_20_00000050647748316048111060000006038867382699133826_" class="st4" d="M-958.4-114.7h-6.3v17h-2v-17h-7v-2h15.2
				L-958.4-114.7z"/>
			<path id="Path_21_00000043418366866358545560000009354566797722588585_" class="st4" d="M-945.6-104.7v7h-2v-19h8.7
				c3.7,0,5.6,2,5.6,6.2c0.1,1.5-0.4,2.9-1.4,4.2c-1.1,1.2-2.5,1.8-4.1,1.6C-938.8-104.7-945.6-104.7-945.6-104.7z M-945.6-115.6
				v8.9h6.7c0.9,0.1,1.9-0.4,2.5-1.2c0.6-0.9,0.9-2,0.8-3.1c0.1-1.2-0.2-2.4-0.8-3.5c-0.5-0.8-1.5-1.3-2.4-1.3L-945.6-115.6z"/>
			<path id="Path_22_00000152953491209038433660000001380157275897412776_" class="st4" d="M-920.6-106.7v8
				c-1.7,0.7-3.6,1.1-5.5,1.1c-1.5,0.1-3-0.2-4.2-1c-0.9-0.9-1.4-2.2-1.3-3.6c0-1.8,0.5-2.9,1.4-3.6c1.2-0.7,2.6-1,4-0.9
				c1.3,0,2.6,0.1,3.9,0.4c0-1.7-0.3-2.7-0.8-3.2c-0.9-0.6-2.1-0.9-3.2-0.8c-1.3,0-2.6,0.2-3.9,0.6l-0.5-1.6c1.5-0.4,3-0.7,4.5-0.7
				c2,0,3.5,0.4,4.3,1.1C-921-110.1-920.6-108.7-920.6-106.7z M-922.6-99.9v-4.9c-1.2-0.3-2.4-0.4-3.6-0.3c-1-0.1-2,0.1-2.9,0.5
				c-0.5,0.3-0.7,1.1-0.7,2.3c0,1.3,0.2,2.2,0.7,2.5c0.9,0.5,1.9,0.7,2.9,0.6C-925-99.2-923.8-99.5-922.6-99.9L-922.6-99.9z"/>
			<path id="Path_23_00000098900259088616665860000000939991441596122511_" class="st4" d="M-911-112.1c0.5,0,0.9,0,1.3,0.1v1.8
				c-0.5-0.1-0.9-0.1-1.3-0.1c-0.9,0-1.8,0.1-2.6,0.5c-0.6,0.2-1,0.7-1.1,1.3v10.8h-2v-14h2v1c0.4-0.4,0.9-0.8,1.4-1
				C-912.4-111.9-911.6-112.1-911-112.1L-911-112.1z"/>
			<path id="Path_24_00000134229477827926477510000013686037561940701824_" class="st4" d="M-896.9-98.7h-1.9c0,0-5.9-6.2-6.8-6.6
				v6.6h-2v-19h2v12.1c1.1-0.7,3.1-2.7,6.1-6.1h2.2c-1.8,2.1-3.7,4.1-5.9,5.8C-902.5-105.4-900.4-103-896.9-98.7z"/>
		</g>
	</g>
</g>
</svg>
